<?xml version="1.0" encoding="utf-8"?>
<!-- Generator: Adobe Illustrator 23.0.1, SVG Export Plug-In . SVG Version: 6.00 Build 0)  -->
<svg version="1.1" id="Layer_1" xmlns="http://www.w3.org/2000/svg" xmlns:xlink="http://www.w3.org/1999/xlink" x="0px" y="0px"
	 viewBox="0 0 100 100" style="enable-background:new 0 0 100 100;" xml:space="preserve">
<path d="M20.89,47.76c0.41-1.03,1.58-1.53,2.6-1.12l12.5,5c1.03,0.41,1.53,1.58,1.12,2.6c-0.32,0.78-1.07,1.26-1.86,1.26
	c-0.25,0-0.5-0.05-0.74-0.14l-12.5-5C20.98,49.95,20.48,48.78,20.89,47.76z M89.41,45.41l-14,14C75.02,59.8,74.51,60,74,60
	s-1.02-0.2-1.41-0.59c-0.79-0.78-0.79-2.04,0-2.82L83.17,46H66v35c0,1.1-0.9,2-2,2H44v10c0,0.66-0.33,1.28-0.88,1.66
	C42.79,94.88,42.39,95,42,95c-0.25,0-0.5-0.05-0.74-0.14l-30-12c-0.01,0-0.01-0.01-0.02-0.01c-0.16-0.07-0.31-0.16-0.45-0.27
	c-0.03-0.02-0.06-0.05-0.1-0.08c-0.13-0.11-0.25-0.23-0.34-0.38h-0.01c-0.09-0.14-0.17-0.3-0.22-0.47
	c-0.02-0.04-0.03-0.08-0.04-0.12C10.03,81.36,10,81.18,10,81V7c0-0.15,0.02-0.3,0.06-0.45c0.01-0.04,0.02-0.08,0.03-0.12
	c0.03-0.11,0.07-0.21,0.12-0.3c0.02-0.05,0.04-0.09,0.07-0.13c0.05-0.09,0.11-0.18,0.18-0.26c0.03-0.03,0.05-0.07,0.08-0.1
	c0.1-0.11,0.21-0.21,0.33-0.29c0.01,0,0.01,0,0.01-0.01c0.13-0.08,0.26-0.15,0.4-0.2c0.04-0.02,0.08-0.03,0.13-0.04
	c0.1-0.03,0.2-0.06,0.3-0.07c0.05-0.01,0.11-0.01,0.16-0.02C11.91,5.01,11.96,5,12,5h52c1.1,0,2,0.9,2,2v35h17.17L72.59,31.41
	c-0.79-0.78-0.79-2.04,0-2.82c0.78-0.79,2.04-0.79,2.82,0l14,14C90.2,43.37,90.2,44.63,89.41,45.41z M40,20.35L14,9.95v69.7l26,10.4
	V20.35z M62,9H22.39l20.35,8.14C43.5,17.45,44,18.18,44,19v60h18V9z"/>
</svg>
